<!DOCTYPE svg PUBLIC "-//W3C//DTD SVG 1.1//EN" "http://www.w3.org/Graphics/SVG/1.1/DTD/svg11.dtd">
<!-- Uploaded to: SVG Repo, www.svgrepo.com, Transformed by: SVG Repo Mixer Tools -->
<svg fill="#00d4ff" height="800px" width="800px" version="1.1" id="Layer_1" xmlns="http://www.w3.org/2000/svg" xmlns:xlink="http://www.w3.org/1999/xlink" viewBox="0 0 481.911 481.911" xml:space="preserve">
<g id="SVGRepo_bgCarrier" stroke-width="0"/>
<g id="SVGRepo_tracerCarrier" stroke-linecap="round" stroke-linejoin="round"/>
<g id="SVGRepo_iconCarrier"> <g> <g> <path d="M55.614,336.309c-17.278,25.24-14.756,60.017,7.648,82.355c12.198,12.273,28.461,18.974,45.779,18.974 c13.261,0,25.885-3.96,36.592-11.311L55.614,336.309z"/> </g> </g> <g> <g> <path d="M464.015,17.868C459.772,13.625,445.082,0,431.603,0c-0.258,0-0.514,0.004-0.764,0.015 c-23.389,0.917-53.895,30.002-90.758,86.328c13.479,6.978,25.834,16.245,36.405,27.859c7.742,8.507,13.99,17.845,19.008,27.651 c56.37-36.882,85.472-67.398,86.389-90.798C482.419,37.372,468.339,22.191,464.015,17.868z"/> </g> </g> <g> <g> <path d="M365.342,124.339c-21.308-23.417-50.372-36.668-81.995-37.422c-31.398-0.751-61.214,11.144-83.501,33.431l-35.84,35.84 c-38.551,38.551-89.6,63.7-143.586,70.776c-8.96,1.204-16.264,7.228-19.2,15.661c-2.786,8.282-0.678,17.318,5.572,23.567 l208.941,208.941c4.367,4.367,10.24,6.776,16.188,6.776c2.409,0,4.969-0.451,7.379-1.28c8.433-2.86,14.456-10.165,15.586-19.125 c7.078-54.06,32.226-105.035,70.852-143.585l33.656-33.732C403.818,239.765,406.453,169.516,365.342,124.339z M326.802,265.952 l-33.486,33.482c-34.507,34.507-58.519,77.298-69.438,123.75l-14.661-3.448c11.566-49.18,36.963-94.459,73.452-130.948 l33.485-33.482c13.633-13.632,21.353-31.555,21.743-50.463c0.382-18.79-6.53-36.268-19.478-49.214 c-11.507-11.511-27.037-18.371-43.728-19.316l0.853-15.037c20.39,1.159,39.397,9.577,53.522,23.706 c15.875,15.871,24.352,37.239,23.882,60.173C352.478,227.967,343.192,249.559,326.802,265.952z"/> </g> </g> </g>
</svg>